<?xml version="1.0" encoding="UTF-8" standalone="no"?>
<!-- Created with Inkscape (http://www.inkscape.org/) -->

<svg
   width="498.76791mm"
   height="506.90051mm"
   viewBox="0 0 498.76792 506.90051"
   version="1.1"
   id="svg1"
   xml:space="preserve"
   inkscape:version="1.3.2 (091e20ef0f, 2023-11-25, custom)"
   sodipodi:docname="favicon.svg"
   xmlns:inkscape="http://www.inkscape.org/namespaces/inkscape"
   xmlns:sodipodi="http://sodipodi.sourceforge.net/DTD/sodipodi-0.dtd"
   xmlns="http://www.w3.org/2000/svg"
   xmlns:svg="http://www.w3.org/2000/svg"><sodipodi:namedview
     id="namedview1"
     pagecolor="#ffffff"
     bordercolor="#000000"
     borderopacity="0.25"
     inkscape:showpageshadow="2"
     inkscape:pageopacity="0.0"
     inkscape:pagecheckerboard="0"
     inkscape:deskcolor="#d1d1d1"
     inkscape:document-units="mm"
     inkscape:zoom="0.25946093"
     inkscape:cx="221.61333"
     inkscape:cy="842.13064"
     inkscape:window-width="2560"
     inkscape:window-height="1371"
     inkscape:window-x="0"
     inkscape:window-y="0"
     inkscape:window-maximized="1"
     inkscape:current-layer="layer1"
     showgrid="false" /><defs
     id="defs1"><clipPath
       clipPathUnits="userSpaceOnUse"
       id="clipPath2"><path
         style="fill:#000000;stroke-width:1"
         d="m 143.89542,280.34774 c 0,-0.31099 0.25442,-2.1612 0.56539,-4.11157 l 0.56539,-3.54611 -0.62166,-0.66172 c -0.55876,-0.59479 -0.79648,-0.65397 -2.34913,-0.58478 l -1.72746,0.077 -0.45551,1.32292 c -0.25052,0.7276 -0.82842,2.5501 -1.28421,4.05 -0.73275,2.41133 -0.89305,2.71767 -1.38444,2.64583 -0.36003,-0.0526 -0.79375,-0.54467 -1.23154,-1.3971 -0.5781,-1.12565 -0.67579,-1.66235 -0.67579,-3.71274 0,-2.63975 0.32423,-3.66451 1.94533,-6.14839 1.16313,-1.78213 2.87868,-2.67391 5.65403,-2.93899 1.6574,-0.15833 2.19388,-0.34261 3.47729,-1.19449 5.57437,-3.70005 10.10055,-5.25133 18.95356,-6.49605 2.11005,-0.29667 4.19364,-0.66152 4.63021,-0.81077 0.43656,-0.14926 9.53292,-1.22538 20.21414,-2.39138 17.82028,-1.94533 19.47163,-2.08644 20.04219,-1.7126 1.17513,0.76998 0.46569,2.54533 -1.15248,2.88404 -2.31585,0.48474 -37.20848,5.48237 -38.3101,5.48711 -3.61432,0.0155 -9.14685,1.26474 -12.16141,2.74594 -1.87144,0.91953 -3.23585,1.88261 -3.00052,2.11793 0.0696,0.0696 3.2714,0.3088 7.11508,0.53153 5.1774,0.29998 7.2285,0.51538 7.91455,0.83116 0.50933,0.23442 1.34276,0.5226 1.85209,0.64042 0.50932,0.11779 1.69995,0.39637 2.64583,0.61905 0.94589,0.22267 6.77995,0.94485 12.96458,1.60488 12.34131,1.31704 14.11013,1.60203 17.93163,2.88899 3.48903,1.17498 4.23437,1.59832 4.76197,2.7047 0.44744,0.93829 0.44667,0.94247 -0.28932,1.57554 -0.83725,0.72017 -2.02364,0.82394 -2.90056,0.25371 -0.92195,-0.59952 -4.85366,-1.64542 -7.46517,-1.98583 -1.30969,-0.17074 -8.19944,-0.82481 -15.31056,-1.45349 -12.7936,-1.13109 -13.14621,-1.18541 -13.46074,-2.07309 -0.0399,-0.11271 -1.55992,-0.21836 -3.37774,-0.23474 -2.9897,-0.027 -3.47778,0.0374 -5.11415,0.67437 l -1.80902,0.70416 -4.9176,-0.5426 c -2.70467,-0.29845 -5.00534,-0.45017 -5.11258,-0.33716 -0.10724,0.113 -1.10513,1.88029 -2.21752,3.92726 -2.08928,3.84463 -2.79141,4.61259 -4.21727,4.61259 -0.52509,0 -0.68678,-0.13314 -0.68678,-0.56547 z m 17.69925,-9.85203 c 0.34231,-0.41246 0.12517,-1.22018 -0.33121,-1.23203 -0.16633,-0.004 -2.02882,-0.17939 -4.13888,-0.38902 -2.11005,-0.20963 -3.90664,-0.38467 -3.99242,-0.38901 -0.17006,-0.009 -0.83772,1.34403 -0.71384,1.44613 0.0418,0.0345 1.92152,0.24008 4.1771,0.45691 2.25557,0.21682 4.23529,0.41135 4.39937,0.4323 0.16408,0.0209 0.43403,-0.12544 0.59988,-0.32528 z m -96.689756,8.47913 c -3.863848,-1.48873 -5.754968,-5.46071 -4.438891,-9.3232 0.634939,-1.86344 2.74252,-3.90991 4.592463,-4.45926 2.824382,-0.83876 4.993764,-0.30914 7.427386,1.81329 1.727668,1.50678 2.900259,1.97374 6.322049,2.51767 1.06979,0.17005 9.319789,0.27652 21.828119,0.28168 11.10487,0.005 20.57303,0.1161 21.14619,0.24902 1.56685,0.36341 2.38761,1.08961 2.48242,2.1965 0.0585,0.68331 -0.0696,1.08201 -0.46636,1.45168 -1.31764,1.22759 -1.23136,1.22283 -25.146616,1.38023 -25.380559,0.16706 -23.827669,0.0393 -26.115854,2.14847 -1.65871,1.52895 -3.033485,2.08611 -5.104982,2.06886 -0.945888,-0.008 -2.082551,-0.1541 -2.525924,-0.32494 z m 5.692301,-3.2009 c 0.275958,-0.64376 0.710113,-1.75718 0.96479,-2.47425 l 0.463053,-1.30376 -0.893271,-2.29643 -0.893273,-2.29642 -2.874769,0.0743 -2.874772,0.0743 -0.910318,2.09468 c -0.500676,1.15208 -0.912079,2.22364 -0.914233,2.38125 -0.0021,0.15762 0.430879,1.32837 0.9623,2.60168 l 0.966216,2.3151 h 2.751267 2.75127 z M 62.800627,259.9007 c -1.594443,-0.71169 -3.042706,-2.90314 -3.042706,-4.60409 0,-1.83099 1.119021,-3.77218 2.601968,-4.5137 2.055741,-1.02793 3.895614,-0.907 5.846924,0.38432 0.533207,0.35286 2.035257,0.87717 3.337891,1.16513 2.242912,0.49582 3.413008,0.52356 22.079884,0.52356 18.579932,0 19.845632,-0.0297 22.048872,-0.51679 1.36544,-0.30189 2.95788,-0.87178 3.82949,-1.37046 2.76483,-1.58188 5.43313,-1.01485 7.15403,1.52026 0.81168,1.1957 0.87699,1.43982 0.78318,2.92729 -0.2619,4.15256 -3.95212,6.03189 -8.04349,4.09632 -0.88676,-0.41951 -2.23207,-0.89566 -2.98959,-1.05812 -1.82354,-0.39108 -43.250217,-0.41423 -45.300963,-0.0253 -0.783217,0.14854 -2.182053,0.62479 -3.108526,1.05835 -1.869802,0.87498 -3.815847,1.02973 -5.196964,0.41325 z m 3.103861,-1.37794 c 1.201222,-0.20098 1.310016,-0.33194 1.998099,-2.40527 l 0.545828,-1.64468 -1.033873,-1.29849 -1.033872,-1.29848 -1.260854,0.22743 c -2.370291,0.42757 -2.343674,0.40971 -2.942159,1.97366 -0.312208,0.81585 -0.567655,1.63581 -0.567655,1.82214 0,0.18632 0.493784,0.95893 1.097298,1.71691 0.866984,1.08889 1.214073,1.34602 1.653646,1.22505 0.305991,-0.0842 1.000586,-0.22743 1.543542,-0.31827 z m 58.165082,-0.16528 c 0.27478,-0.32742 0.80183,-1.02124 1.17121,-1.54181 l 0.67162,-0.94651 -0.57795,-1.43474 c -0.31787,-0.78912 -0.67066,-1.54152 -0.78397,-1.67201 -0.11332,-0.13049 -0.96952,-0.38073 -1.90267,-0.55609 l -1.69664,-0.31883 -0.9633,1.18789 c -0.52981,0.65334 -0.95621,1.37983 -0.94756,1.61442 0.009,0.2346 0.27654,1.13504 0.59531,2.00099 0.56909,1.54595 0.60354,1.58012 1.90251,1.8868 1.8911,0.44649 1.97838,0.4389 2.53144,-0.22011 z m 13.18933,-10.19817 c -1.96006,-0.97841 -3.71028,-4.80023 -3.77983,-8.25369 -0.0475,-2.35932 0.48837,-4.02974 1.68999,-5.26793 1.49084,-1.53622 3.01148,-1.94215 6.87252,-1.8346 l 3.1682,0.0882 0.28682,-0.69346 c 0.18425,-0.44549 0.80492,-0.94716 1.73568,-1.4029 2.58633,-1.26641 5.5446,-1.23818 7.49467,0.0715 0.991,0.66556 1.26059,0.72014 3.19519,0.64688 2.04595,-0.0775 2.11286,-0.0609 2.11286,0.52283 0,0.53732 0.12699,0.60217 1.16859,0.5967 0.64273,-0.003 1.25685,-0.0944 1.36472,-0.20227 0.10787,-0.10788 0.35591,-0.0635 0.5512,0.0985 0.26178,0.21726 0.45316,0.21328 0.72839,-0.0151 0.26792,-0.22235 0.42398,-0.22787 0.55273,-0.0196 0.12874,0.20832 0.28481,0.2028 0.55272,-0.0196 0.28522,-0.23671 0.46141,-0.23671 0.74664,0 0.20532,0.17041 0.4336,0.21229 0.50727,0.0931 0.0737,-0.11921 1.16122,-0.2046 2.41677,-0.18975 1.25554,0.0148 2.34756,-0.0778 2.42669,-0.20583 0.0791,-0.12805 0.30667,-0.0977 0.50562,0.0674 0.19895,0.16511 0.46742,0.23489 0.59659,0.15505 0.12917,-0.0798 0.66666,-0.0259 1.19441,0.1198 2.47433,0.6832 2.36621,4.13983 -0.13444,4.29796 -0.53752,0.034 -1.06234,0.14684 -1.16628,0.25077 -0.10393,0.10394 -0.35783,0.0488 -0.56421,-0.12244 -0.29203,-0.24236 -0.42944,-0.22719 -0.61966,0.0684 -0.21239,0.33009 -0.27644,0.33009 -0.48883,0 -0.19593,-0.3045 -0.32249,-0.31507 -0.63791,-0.0533 -0.27997,0.23236 -0.44523,0.24283 -0.57288,0.0363 -0.12875,-0.20832 -0.28481,-0.2028 -0.55273,0.0195 -0.28522,0.23672 -0.46141,0.23672 -0.74664,0 -0.23515,-0.19515 -0.43263,-0.21385 -0.53358,-0.0505 -0.0882,0.14263 -0.63676,0.21571 -1.21913,0.1624 l -1.05886,-0.0969 0.94998,0.92255 c 1.28267,1.24564 1.60614,1.33742 5.41376,1.53602 11.38776,0.59399 18.68386,0.99234 22.61803,1.23491 3.33412,0.20557 5.88343,0.19307 9.85277,-0.0483 6.22283,-0.37841 7.10241,-0.2479 7.98818,1.18529 0.69522,1.1249 0.69036,1.82041 -0.0216,3.08711 -0.88679,1.57784 -1.41778,1.68607 -6.23607,1.27106 -4.72033,-0.40658 -22.31689,-0.39513 -40.2906,0.0262 -9.85383,0.23099 -11.13978,0.31567 -15.98957,1.05284 -2.90067,0.44091 -5.30427,0.77132 -5.34134,0.73425 -0.0371,-0.0371 -0.13649,-0.77926 -0.22094,-1.64932 -0.0844,-0.87006 -0.20862,-1.99864 -0.27595,-2.50797 -0.0673,-0.50932 -0.1905,-1.45355 -0.27372,-2.09829 -0.0832,-0.64474 -0.20353,-1.25676 -0.26737,-1.36005 -0.0638,-0.10329 0.28268,-0.26261 0.77003,-0.35403 0.76559,-0.14363 0.86934,-0.25385 0.76293,-0.8105 -0.11887,-0.62183 -0.19818,-0.64358 -2.27747,-0.62454 -1.18487,0.0109 -2.36001,0.072 -2.61143,0.13599 -0.72655,0.18477 -1.05555,2.02219 -1.07126,5.98279 -0.008,2.00722 -0.0939,3.69859 -0.19102,3.7586 -0.0971,0.06 -0.5834,-0.094 -1.08066,-0.3422 z m 73.31152,-4.42006 c 0.26278,-0.31663 0.26278,-0.47712 0,-0.79375 -0.25595,-0.30839 -0.97286,-0.39687 -3.2157,-0.39687 -2.99687,0 -3.43033,0.16984 -3.03862,1.19062 0.12249,0.31922 0.71707,0.39688 3.03862,0.39688 2.24284,0 2.95975,-0.0885 3.2157,-0.39688 z m -50.74107,-4.26969 c 1.05065,-0.17369 1.4312,-0.73977 1.13169,-1.68343 -0.26882,-0.847 -0.66146,-0.61142 -0.66146,0.39687 v 0.92604 l -1.91823,0.0186 c -1.3173,0.0128 -1.75245,0.0898 -1.38906,0.24599 0.65029,0.27944 1.54415,0.30966 2.83706,0.0959 z m -95.603921,4.56612 c -1.707165,-0.61007 -4.014422,-2.59976 -3.524734,-3.0396 0.136319,-0.12244 1.247301,-0.56417 2.468851,-0.98162 1.955284,-0.6682 2.263915,-0.86172 2.57969,-1.61747 0.713034,-1.70653 0.282705,-3.57001 -1.130919,-4.89727 l -0.761026,-0.71454 -2.172452,0.47146 c -2.578113,0.55948 -2.918338,0.45011 -2.483146,-0.79829 0.921097,-2.64226 2.976081,-4.19796 5.801545,-4.392 1.457886,-0.10012 2.204844,0.0189 4.279683,0.68176 3.04373,0.97243 1.513517,0.7051 24.473956,4.27576 11.613273,1.80602 19.088463,2.85657 19.579163,2.75162 1.40737,-0.301 2.14478,-0.83986 3.29393,-2.40699 2.42776,-3.31082 5.23638,-4.48775 7.81857,-3.27632 1.19035,0.55845 2.51354,1.72744 2.51354,2.22063 0,0.17986 -0.85511,0.56068 -1.90679,0.84919 -1.87837,0.51529 -1.91161,0.53973 -2.22984,1.63955 -0.42053,1.45338 -0.0865,2.67306 1.03133,3.76596 0.58593,0.57286 1.01935,0.78891 1.3839,0.68983 1.58608,-0.43104 3.58024,-0.7589 3.72647,-0.61267 0.36764,0.36763 -0.86281,2.77713 -1.99734,3.91128 -1.91204,1.9114 -3.75941,2.24309 -7.35692,1.32095 -1.12393,-0.28809 -6.03211,-1.00582 -10.90706,-1.59495 -4.87494,-0.58912 -13.209315,-1.60827 -18.520828,-2.26476 -15.67316,-1.93718 -14.884948,-1.99059 -17.973924,1.21789 -1.204465,1.25106 -2.476465,2.2936 -3.19274,2.61679 -1.364734,0.61578 -3.369056,0.69264 -4.792909,0.18381 z m 84.671651,-18.85984 c -0.30578,-0.70419 -0.64698,-1.51797 -0.7582,-1.80842 -0.17795,-0.46467 -0.59759,-0.56335 -3.49536,-0.82189 -1.81122,-0.1616 -3.8922,-0.49279 -4.62439,-0.73598 -1.43191,-0.47561 -2.5641,-1.34303 -2.40189,-1.84019 0.0551,-0.16896 1.63909,-0.97625 3.51993,-1.79398 3.60272,-1.56637 3.82029,-1.77386 3.44171,-3.28223 -0.23601,-0.94034 -1.45504,-2.2428 -2.09605,-2.2395 -0.31448,0.002 -1.85964,0.47787 -3.43368,1.05834 -1.57404,0.58046 -3.03255,1.05539 -3.24114,1.05539 -1.1273,0 0.54896,-3.81965 2.53358,-5.77322 2.17103,-2.13706 5.36389,-3.38537 7.46351,-2.918 0.62316,0.13871 2.3302,0.95938 3.79341,1.82371 4.84972,2.86475 8.78895,4.22903 13.34691,4.62244 1.0914,0.0942 6.27062,0.0403 11.50937,-0.1198 5.23875,-0.1601 13.40934,-0.41024 18.15686,-0.55588 15.0481,-0.46161 16.10043,-0.44379 17.59694,0.298 2.10068,1.04126 2.74735,3.14159 1.68676,5.47843 -0.40927,0.90176 -0.77067,1.24876 -1.75331,1.68343 l -1.23778,0.54752 -20.16242,-0.33276 c -21.06412,-0.34765 -26.61074,-0.27918 -28.8735,0.35645 -2.96097,0.83175 -7.2783,3.35128 -9.2915,5.42237 l -1.12378,1.1561 z m 6.90459,-7.10482 c 0,-0.18914 -0.35621,-1.13782 -0.79158,-2.10817 -0.57696,-1.28594 -0.91176,-1.74097 -1.23484,-1.67831 -0.67285,0.13048 -0.71543,0.66059 -0.0667,0.83024 0.39222,0.10257 0.52291,0.28423 0.41215,0.57287 -0.0975,0.25402 0.003,0.48602 0.25154,0.58144 0.24029,0.0922 0.36159,0.35813 0.28936,0.63435 -0.0697,0.2664 0.0454,0.54073 0.26151,0.62367 0.2484,0.0953 0.32608,0.33647 0.21804,0.67688 -0.12894,0.40625 -0.0718,0.49197 0.24634,0.36987 0.2278,-0.0874 0.41418,-0.31369 0.41418,-0.50284 z m 53.86379,0.16624 c 1.60517,-0.97883 1.83785,-3.25858 0.472,-4.62443 -1.89369,-1.8937 -5.02431,-0.45752 -4.95274,2.27208 0.0584,2.22771 2.54466,3.53297 4.48074,2.35235 z m -146.800963,5.922 c -1.940697,-0.49016 -3.248205,-1.15401 -2.919777,-1.48243 0.136178,-0.13618 1.37025,-0.55432 2.742379,-0.92921 1.37213,-0.37488 2.630665,-0.79294 2.796744,-0.92903 0.471977,-0.38674 0.681863,-2.47278 0.366596,-3.64359 -0.157083,-0.58336 -0.579231,-1.4096 -0.938106,-1.8361 l -0.652505,-0.77546 -2.663899,0.66798 c -2.939309,0.73704 -3.583512,0.61719 -2.83368,-0.5272 0.582718,-0.88934 3.056006,-2.73506 4.551437,-3.39656 1.912929,-0.84618 4.235,-0.64636 5.761228,0.49576 1.696654,1.26965 4.173714,2.62094 5.367382,2.92801 1.599859,0.41157 40.827814,0.71502 42.862494,0.33157 0.87313,-0.16455 2.54,-0.77463 3.70417,-1.35573 2.28584,-1.14101 3.44898,-1.30201 4.93139,-0.68262 3.26432,1.36392 4.35826,5.49422 2.1502,8.11835 -1.47319,1.75078 -4.28464,2.32464 -6.29804,1.28551 -0.57648,-0.29752 -1.88157,-0.78874 -2.90022,-1.09159 -1.7895,-0.53205 -2.55337,-0.55503 -22.607216,-0.68026 -15.346466,-0.0958 -21.117031,-0.0486 -22.143847,0.18117 -0.925521,0.20712 -1.977618,0.7455 -3.154365,1.61416 -0.971114,0.71686 -2.198259,1.43077 -2.726989,1.58646 -1.617729,0.47635 -3.794699,0.52509 -5.395376,0.12081 z m 62.204783,-3.20347 c 0.82276,-0.23439 1.57855,-0.50228 1.67954,-0.59531 0.10099,-0.093 0.31556,-0.99739 0.47682,-2.00968 0.32513,-2.04092 0.49436,-1.69755 -1.68399,-3.41696 l -0.96232,-0.75959 -1.58675,0.59341 c -0.87271,0.32637 -1.58765,0.66818 -1.58874,0.75958 -0.001,0.0914 -0.12705,0.93691 -0.27988,1.87892 l -0.27788,1.71274 1.27206,1.12136 c 0.69964,0.61675 1.31328,1.12594 1.36364,1.13153 0.0504,0.006 0.76474,-0.18161 1.5875,-0.416 z m -4.70438,-14.93185 c -0.35424,-0.14928 -1.27036,-0.80648 -2.03584,-1.46045 -0.76548,-0.65397 -2.083,-1.50903 -2.92782,-1.90014 -1.52581,-0.70638 -1.59149,-0.71253 -9.87041,-0.92373 -4.5839,-0.11693 -13.394523,-0.18032 -19.579159,-0.14086 l -11.244794,0.0717 -1.455206,0.68857 c -0.800364,0.37871 -2.034154,1.17066 -2.741753,1.75988 -1.577252,1.3134 -3.084229,1.7671 -5.283192,1.59059 -1.900322,-0.15254 -4.145888,-1.03633 -4.145888,-1.63171 0,-0.36867 0.432554,-0.53442 4.314634,-1.65333 0.581316,-0.16755 0.97703,-1.12992 0.97703,-2.37612 0,-1.01331 -0.320524,-1.7798 -1.105236,-2.643 l -0.509947,-0.56095 -2.562064,0.60417 c -1.409134,0.33229 -2.653062,0.54793 -2.764282,0.47919 -0.506132,-0.31281 -0.09248,-1.2295 1.18604,-2.62841 1.527535,-1.67137 3.481459,-2.75377 4.961739,-2.74861 1.108318,0.004 2.729952,0.70408 3.880951,1.67579 1.334981,1.12703 2.995763,1.7219 5.532426,1.98164 1.355977,0.13885 10.130002,0.17029 20.616834,0.0739 18.023817,-0.1657 18.269717,-0.17509 19.314577,-0.7374 0.58209,-0.31326 1.35599,-0.8906 1.71979,-1.28296 0.36381,-0.39237 1.25677,-1.02846 1.98438,-1.41354 1.16783,-0.61807 1.61758,-0.69904 3.83646,-0.69072 2.01519,0.008 2.7664,0.12505 3.7889,0.59261 1.03714,0.47425 1.25953,0.69333 1.19062,1.17292 -0.0724,0.5036 -0.45775,0.69243 -2.63871,1.29285 -1.4047,0.38671 -2.67112,0.7755 -2.81428,0.86398 -0.14316,0.0885 -0.33754,0.57263 -0.43195,1.07589 -0.26866,1.43207 0.86608,3.64572 2.25211,4.39342 0.26691,0.14398 1.27947,-0.009 2.77032,-0.41953 1.98018,-0.54481 2.40619,-0.58992 2.70921,-0.28691 0.30301,0.30302 0.17744,0.58359 -0.79857,1.7843 -0.63697,0.78361 -1.84032,1.89557 -2.67411,2.47101 -1.30889,0.90332 -1.74091,1.05657 -3.16237,1.1218 -0.90551,0.0416 -1.93621,-0.0466 -2.29044,-0.19587 z m 15.68037,-5.22443 c -1.96535,-1.05903 -2.76355,-3.45287 -1.71633,-5.14732 1.11694,-1.80724 2.96379,-2.09239 5.43794,-0.83961 l 1.48524,0.75204 3.50446,-0.85496 c 4.50831,-1.09986 4.45668,-1.10006 28.90446,0.11362 l 19.57917,0.97198 2.43878,-0.55301 c 1.5125,-0.34298 4.16697,-1.31244 6.98891,-2.55249 4.76321,-2.0931 5.93035,-2.35238 7.32034,-1.62621 3.26783,1.70719 3.52081,6.43047 0.41396,7.7286 -1.40595,0.58744 -2.96035,0.44894 -4.81648,-0.42915 -0.92257,-0.43645 -1.91049,-0.79354 -2.19538,-0.79354 -0.28488,0 -1.95194,0.41672 -3.70456,0.92604 -2.55293,0.7419 -3.64245,0.92604 -5.47906,0.92604 -2.16148,0 -26.84926,-1.27935 -35.7547,-1.85285 -7.47498,-0.48138 -7.75963,-0.45447 -12.60962,1.19228 -2.35867,0.80085 -4.84308,1.69382 -5.52092,1.98437 -1.49561,0.6411 -3.14816,0.66203 -4.27621,0.0542 z m 3.52296,-1.77959 c 0.22325,-0.58179 -0.3892,-1.88855 -1.1049,-2.3575 -0.33884,-0.22202 -1.09873,-0.48085 -1.68863,-0.57518 -1.36825,-0.21879 -1.63136,0.29651 -0.82093,1.60779 0.31706,0.51302 0.59653,0.93456 0.62104,0.93675 0.0245,0.002 0.52082,0.17555 1.1029,0.38526 1.36725,0.49257 1.70241,0.49308 1.89052,0.003 z m 70.43513,-2.53523 c 1.29638,-0.45192 1.38836,-1.39241 0.24772,-2.53304 -1.05452,-1.05452 -2.62278,-1.41495 -3.88381,-0.89261 -0.9642,0.39938 -1.17686,1.13861 -0.61113,2.12433 0.78026,1.35954 2.53657,1.89766 4.24722,1.30132 z"
         id="path2" /></clipPath></defs><g
     inkscape:label="Layer 1"
     inkscape:groupmode="layer"
     id="layer1"
     transform="translate(-46.883809,-70.995331)"><text
       xml:space="preserve"
       style="font-style:normal;font-variant:normal;font-weight:normal;font-stretch:normal;font-size:489.976px;font-family:sans-serif;-inkscape-font-specification:'sans-serif, Normal';font-variant-ligatures:normal;font-variant-caps:normal;font-variant-numeric:normal;font-variant-east-asian:normal;fill:#ff9000;fill-opacity:1;stroke-width:7.3496"
       x="42.156963"
       y="347.92221"
       id="text1"
       transform="scale(0.61321869,1.6307396)"
       inkscape:export-filename="favicon.svg"
       inkscape:export-xdpi="25.43816"
       inkscape:export-ydpi="25.43816"><tspan
         sodipodi:role="line"
         id="tspan1"
         style="font-style:normal;font-variant:normal;font-weight:800;font-stretch:normal;font-size:489.976px;font-family:'JetBrainsMono Nerd Font';-inkscape-font-specification:'JetBrainsMono Nerd Font Ultra-Bold';font-variant-ligatures:normal;font-variant-caps:normal;font-variant-numeric:normal;font-variant-east-asian:normal;fill:#ff9000;fill-opacity:1;stroke-width:7.3496"
         x="42.156963"
         y="347.92221">&lt; &gt;</tspan></text><rect
       style="fill:#6b6b6b;fill-opacity:1;stroke:#000000;stroke-width:0.416128;stroke-dasharray:none;stroke-opacity:1"
       id="rect1"
       width="78.472351"
       height="16.181049"
       x="55.630585"
       y="209.77411"
       clip-path="url(#clipPath2)"
       transform="matrix(-1.3841019,6.4577958,-9.6933424,-0.43528054,2530.1245,-198.23713)" /></g></svg>
